<?xml version="1.0" encoding="UTF-8"?>
<svg width="640" height="480" xmlns="http://www.w3.org/2000/svg" xmlns:xlink="http://www.w3.org/1999/xlink">
 <!-- Created with SVG-edit - http://svg-edit.googlecode.com/ -->
 <defs>
  <svg viewBox="0 0 32 32" y="0px" x="0px" xmlns:xlink="http://www.w3.org/1999/xlink" id="svg_1">.st0{fill:#231F20;}
   <g>
    <g>
     <path d="m32,5.9l-25.6,0l-1,-3.2h-5.4v1.9h3.9l3.6,9.3l4.2,10.300001h14.000001v-1.900002h-12.6l-1.3,-3.799999h15.599999l4.6,-12.6zm-20.9,10.800001l-1.1,-2.200001l-2.7,-6.7h21.900001l-3.300001,8.900001h-14.799999l0,0zm2.9,8.799999c-1.2,0 -2.1,0.9 -2.1,1.9c0,1.1 0.900001,1.9 2.1,1.9c1.2,0 2.1,-0.9 2.1,-1.9c0,-1 -0.900001,-1.9 -2.1,-1.9zm9.6,0c-1.1,0 -2.1,0.799999 -2.1,1.9c0,1 0.9,1.9 2.1,1.9c1.1,0 2.1,-0.799999 2.1,-1.9c-0.1,-1 -1,-1.9 -2.1,-1.9z" class="st0"/>
    </g>
   </g></svg>
 </defs>
 <g>
  <title>Layer 1</title>
  <use fill="#ffffff" x="-1028.158012" y="-718.875183" transform="matrix(1.17427, 0, 0, 1.17427, 1138.91, 801.27)" id="svg_2" xlink:href="#svg_1"/>
 </g>
</svg>